<svg xmlns="http://www.w3.org/2000/svg" version="1.1" xmlns:xlink="http://www.w3.org/1999/xlink" width="39" height="45"><svg width="39" height="45" viewBox="0 0 39 45" fill="none" xmlns="http://www.w3.org/2000/svg">
<path fill-rule="evenodd" clip-rule="evenodd" d="M13.0974 33.5587C12.3376 32.7358 11.55 31.9517 10.7065 31.11C6.00823 26.4372 -0.328057 20.1255 0.013224 12.6248C0.277912 6.74947 4.98309 2.89311 11.076 1.13214C16.4704 -0.377381 22.2297 -0.377381 27.6245 1.13214C33.7173 2.89333 38.4225 6.7498 38.6873 12.6313C39.0217 20.1324 32.6854 26.4377 27.994 31.1166C27.1436 31.9586 26.363 32.7363 25.5962 33.5653L24.9481 34.2659V34.3238H13.7948L13.0978 33.578L13.0974 33.5587ZM20.8838 4.37789V29.1241C25.7632 19.6629 30.8591 9.50159 24.7316 4.886V4.88558C23.4664 4.61725 22.1795 4.44772 20.8838 4.37787V4.37789ZM18.0535 29.2909V4.3648C16.7517 4.42443 15.4579 4.58373 14.1848 4.84014C7.9113 9.45508 13.1043 19.7457 18.0535 29.2647V29.2909ZM30.0775 6.90975C32.2177 12.4758 28.9135 20.1306 25.1002 27.6445C29.1574 23.5951 34.2529 18.2732 34.009 12.7967C33.8977 10.2774 32.371 8.29759 30.0775 6.9091V6.90975ZM13.9122 27.9596C10.0016 20.2916 6.55788 12.45 8.82363 6.78763C6.42579 8.19531 4.80854 10.2006 4.68982 12.7975C4.43899 18.4215 9.80667 23.8714 13.9122 27.9593V27.9596Z" fill="#A14F03"></path>
<path fill-rule="evenodd" clip-rule="evenodd" d="M24.9417 35.2815L24.405 39.2989V42.6476C24.405 43.9331 23.0598 45 21.4144 45H17.3366C15.6916 45 14.346 43.9394 14.346 42.6476V39.4339L13.7954 35.3012H16.082L16.4584 38.1033H22.2788L22.6553 35.3012L24.9417 35.2815Z" fill="#A14F03"></path>
</svg><style>@media (prefers-color-scheme: light) { :root { filter: none; } }
@media (prefers-color-scheme: dark) { :root { filter: none; } }
</style></svg>